<?xml version="1.0" encoding="utf-8"?><!DOCTYPE svg PUBLIC "-//W3C//DTD SVG 1.1//EN" "http://www.w3.org/Graphics/SVG/1.1/DTD/svg11.dtd"><svg width="200" height="200" viewBox="0 0 200 200" xmlns="http://www.w3.org/2000/svg" xmlns:xlink="http://www.w3.org/1999/xlink"><svg id="angular" width="50" height="50" viewBox="0 0 250 250"><style>.ast0{fill:#dd0031}.ast1{fill:#c3002f}.ast2{fill:#fff}</style><path class="ast0" d="M125 30L31.9 63.2l14.2 123.1L125 230l78.9-43.7 14.2-123.1z"/><path class="ast1" d="M125 30v22.2-.1V230l78.9-43.7 14.2-123.1L125 30z"/><path class="ast2" d="M125 52.1L66.8 182.6h21.7l11.7-29.2h49.4l11.7 29.2H183L125 52.1zm17 83.3h-34l17-40.9 17 40.9z"/></svg><svg fill="#51B2A8" height="14" viewBox="0 0 24 24" width="14" id="arrow" x="64" y="150"><path d="M0 0h24v24H0z" fill="none"/><path d="M12 4l-1.41 1.41L16.17 11H4v2h12.17l-5.58 5.59L12 20l8-8z"/></svg><svg fill="#FFF" height="14" viewBox="0 0 24 24" width="14" id="arrow-white" x="134" y="150"><path d="M0 0h24v24H0z" fill="none"/><path d="M12 4l-1.41 1.41L16.17 11H4v2h12.17l-5.58 5.59L12 20l8-8z"/></svg><svg fill="#FFF" height="14" viewBox="0 0 24 24" width="14" id="call" x="50" y="150"><path d="M0 0h24v24H0z" fill="none"/><path d="M6.62 10.79c1.44 2.83 3.76 5.14 6.59 6.59l2.2-2.2c.27-.27.67-.36 1.02-.24 1.12.37 2.33.57 3.57.57.55 0 1 .45 1 1V20c0 .55-.45 1-1 1-9.39 0-17-7.61-17-17 0-.55.45-1 1-1h3.5c.55 0 1 .45 1 1 0 1.25.2 2.45.57 3.57.11.35.03.74-.25 1.02l-2.2 2.2z"/></svg><svg width="50" height="50" viewBox="0 0 504.771 504.771" id="css3" x="100"><path fill="#FD1685" d="M75.089 23.98l-16.844 84.798h344.893l-10.849 54.531H47.111l-16.562 84.795h344.896l-19.418 96.783-138.754 45.969-120.484-45.969 8.28-41.966H20.272L0 404.559l199.286 76.232 229.545-76.232 75.94-380.579z"/></svg><svg height="14" width="14" id="facebook" viewBox="0 0 512 512" x="106" y="150"><style>.fst0{fill:#fff}</style><path class="fst0" d="M366 172.6h-74.9v-49.1c0-18.5 12.2-22.8 20.8-22.8h52.9V19.6l-72.8-.3c-80.8 0-99.2 60.5-99.2 99.2v54.1H146v83.6h46.7v236.5H291V256.2h66.3l8.7-83.6z"/></svg><svg width="50" height="50" viewBox="0 0 256 256" preserveAspectRatio="xMidYMid" id="git" y="100"><path d="M251.172 116.594L139.4 4.828c-6.433-6.437-16.873-6.437-23.314 0l-23.21 23.21 29.443 29.443c6.842-2.312 14.688-.761 20.142 4.693 5.48 5.489 7.02 13.402 4.652 20.266l28.375 28.376c6.865-2.365 14.786-.835 20.269 4.657 7.663 7.66 7.663 20.075 0 27.74-7.665 7.666-20.08 7.666-27.749 0-5.764-5.77-7.188-14.235-4.27-21.336l-26.462-26.462-.003 69.637a19.82 19.82 0 0 1 5.188 3.71c7.663 7.66 7.663 20.076 0 27.747-7.665 7.662-20.086 7.662-27.74 0-7.663-7.671-7.663-20.086 0-27.746a19.654 19.654 0 0 1 6.421-4.281V94.196a19.378 19.378 0 0 1-6.421-4.281c-5.806-5.798-7.202-14.317-4.227-21.446L81.47 39.442l-76.64 76.635c-6.44 6.443-6.44 16.884 0 23.322l111.774 111.768c6.435 6.438 16.873 6.438 23.316 0l111.251-111.249c6.438-6.44 6.438-16.887 0-23.324" fill="#DE4C36"/></svg><svg width="50" height="50" viewBox="0 0 256 250" preserveAspectRatio="xMidYMid" id="github" x="50" y="100"><path d="M128.001 0C57.317 0 0 57.307 0 128.001c0 56.554 36.676 104.535 87.535 121.46 6.397 1.185 8.746-2.777 8.746-6.158 0-3.052-.12-13.135-.174-23.83-35.61 7.742-43.124-15.103-43.124-15.103-5.823-14.795-14.213-18.73-14.213-18.73-11.613-7.944.876-7.78.876-7.78 12.853.902 19.621 13.19 19.621 13.19 11.417 19.568 29.945 13.911 37.249 10.64 1.149-8.272 4.466-13.92 8.127-17.116-28.431-3.236-58.318-14.212-58.318-63.258 0-13.975 5-25.394 13.188-34.358-1.329-3.224-5.71-16.242 1.24-33.874 0 0 10.749-3.44 35.21 13.121 10.21-2.836 21.16-4.258 32.038-4.307 10.878.049 21.837 1.47 32.066 4.307 24.431-16.56 35.165-13.12 35.165-13.12 6.967 17.63 2.584 30.65 1.255 33.873 8.207 8.964 13.173 20.383 13.173 34.358 0 49.163-29.944 59.988-58.447 63.157 4.591 3.972 8.682 11.762 8.682 23.704 0 17.126-.148 30.91-.148 35.126 0 3.407 2.304 7.398 8.792 6.14C219.37 232.5 256 184.537 256 128.002 256 57.307 198.691 0 128.001 0zm-80.06 182.34c-.282.636-1.283.827-2.194.39-.929-.417-1.45-1.284-1.15-1.922.276-.655 1.279-.838 2.205-.399.93.418 1.46 1.293 1.139 1.931zm6.296 5.618c-.61.566-1.804.303-2.614-.591-.837-.892-.994-2.086-.375-2.66.63-.566 1.787-.301 2.626.591.838.903 1 2.088.363 2.66zm4.32 7.188c-.785.545-2.067.034-2.86-1.104-.784-1.138-.784-2.503.017-3.05.795-.547 2.058-.055 2.861 1.075.782 1.157.782 2.522-.019 3.08zm7.304 8.325c-.701.774-2.196.566-3.29-.49-1.119-1.032-1.43-2.496-.726-3.27.71-.776 2.213-.558 3.315.49 1.11 1.03 1.45 2.505.701 3.27zm9.442 2.81c-.31 1.003-1.75 1.459-3.199 1.033-1.448-.439-2.395-1.613-2.103-2.626.301-1.01 1.747-1.484 3.207-1.028 1.446.436 2.396 1.602 2.095 2.622zm10.744 1.193c.036 1.055-1.193 1.93-2.715 1.95-1.53.034-2.769-.82-2.786-1.86 0-1.065 1.202-1.932 2.733-1.958 1.522-.03 2.768.818 2.768 1.868zm10.555-.405c.182 1.03-.875 2.088-2.387 2.37-1.485.271-2.861-.365-3.05-1.386-.184-1.056.893-2.114 2.376-2.387 1.514-.263 2.868.356 3.061 1.403z" fill="#161614"/></svg><svg width="14" height="14" viewBox="0 0 256 250" preserveAspectRatio="xMidYMid" id="github-small" x="92" y="150"><path d="M128.001 0C57.317 0 0 57.307 0 128.001c0 56.554 36.676 104.535 87.535 121.46 6.397 1.185 8.746-2.777 8.746-6.158 0-3.052-.12-13.135-.174-23.83-35.61 7.742-43.124-15.103-43.124-15.103-5.823-14.795-14.213-18.73-14.213-18.73-11.613-7.944.876-7.78.876-7.78 12.853.902 19.621 13.19 19.621 13.19 11.417 19.568 29.945 13.911 37.249 10.64 1.149-8.272 4.466-13.92 8.127-17.116-28.431-3.236-58.318-14.212-58.318-63.258 0-13.975 5-25.394 13.188-34.358-1.329-3.224-5.71-16.242 1.24-33.874 0 0 10.749-3.44 35.21 13.121 10.21-2.836 21.16-4.258 32.038-4.307 10.878.049 21.837 1.47 32.066 4.307 24.431-16.56 35.165-13.12 35.165-13.12 6.967 17.63 2.584 30.65 1.255 33.873 8.207 8.964 13.173 20.383 13.173 34.358 0 49.163-29.944 59.988-58.447 63.157 4.591 3.972 8.682 11.762 8.682 23.704 0 17.126-.148 30.91-.148 35.126 0 3.407 2.304 7.398 8.792 6.14C219.37 232.5 256 184.537 256 128.002 256 57.307 198.691 0 128.001 0zm-80.06 182.34c-.282.636-1.283.827-2.194.39-.929-.417-1.45-1.284-1.15-1.922.276-.655 1.279-.838 2.205-.399.93.418 1.46 1.293 1.139 1.931zm6.296 5.618c-.61.566-1.804.303-2.614-.591-.837-.892-.994-2.086-.375-2.66.63-.566 1.787-.301 2.626.591.838.903 1 2.088.363 2.66zm4.32 7.188c-.785.545-2.067.034-2.86-1.104-.784-1.138-.784-2.503.017-3.05.795-.547 2.058-.055 2.861 1.075.782 1.157.782 2.522-.019 3.08zm7.304 8.325c-.701.774-2.196.566-3.29-.49-1.119-1.032-1.43-2.496-.726-3.27.71-.776 2.213-.558 3.315.49 1.11 1.03 1.45 2.505.701 3.27zm9.442 2.81c-.31 1.003-1.75 1.459-3.199 1.033-1.448-.439-2.395-1.613-2.103-2.626.301-1.01 1.747-1.484 3.207-1.028 1.446.436 2.396 1.602 2.095 2.622zm10.744 1.193c.036 1.055-1.193 1.93-2.715 1.95-1.53.034-2.769-.82-2.786-1.86 0-1.065 1.202-1.932 2.733-1.958 1.522-.03 2.768.818 2.768 1.868zm10.555-.405c.182 1.03-.875 2.088-2.387 2.37-1.485.271-2.861-.365-3.05-1.386-.184-1.056.893-2.114 2.376-2.387 1.514-.263 2.868.356 3.061 1.403z" fill="#FFF"/></svg><svg width="50" height="50" viewBox="0 0 256 566" preserveAspectRatio="xMidYMid" id="gulp" x="150"><path d="M197.28 548.749l5.427-90.43 14.985-25.58s-34.106 13.952-91.205 13.952c-57.1 0-90.689-13.694-90.689-13.694l16.794 27.904 5.941 87.848c0 9.418 31.059 17.052 69.374 17.052 38.313 0 69.373-7.634 69.373-17.052M180.161 126.454l11.391-45.025 63.081-66.376L238.007.892l-66.784 70.707-13.226 53.793a886.14 886.14 0 0 0-29.873-.497c-70.336 0-127.355 8.016-127.355 17.902 0 9.887 57.019 17.902 127.355 17.902 70.335 0 127.353-8.015 127.353-17.902 0-7.28-30.924-13.546-75.316-16.343" fill="#D34A47"/><path d="M173.535 151.669s-2.467.553-9.724.584c-7.259.03-12.413-.047-14.466-1.917-.552-.502-.854-1.499-.851-2.174.006-1.285.918-2.042 2.08-2.516l1.099 1.724c-.478.165-.751.36-.752.568-.004.976 7.422 1.644 13.102 1.572 5.681-.07 12.545-.538 12.551-1.5 0-.291-.519-.565-1.422-.781l1.094-1.712c1.472.457 2.757 1.34 2.754 2.868-.014 2.598-3.32 2.993-5.465 3.284" fill="#FFF"/><path d="M254.509 15.184c1.586-1.832-.821-6.518-5.376-10.465C244.576.774 239.596-.94 238.007.892c-1.587 1.832.821 6.518 5.378 10.463 4.555 3.946 9.537 5.662 11.124 3.829M194.246 327.865c-1.495-14.384 31.462-35.216 23.004-35.883-18.208 1.041-27.27 21.338-36.431 42.596-3.357 7.791-14.844 41.013-22.378 36.923-7.532-4.088 9.765-31.407 14.613-47.631-5.594 4.102-26.109 20.041-31.396 5.114-8.5 7.219-26.663 11.13-24.614-7.833-4.522 8.01-14.671 19.193-26.853 14.546-15.998-6.101 9.27-57.062 15.553-54.491 6.284 2.57-1.268 14.179-3.246 18.687-4.35 9.921-9.375 22.393-6.018 24.946 5.751 4.374 21.401-16.547 21.749-17.007 2.927-3.867 11.266-29.166 17.987-26.261 6.721 2.905-16.764 36.308-7.983 42.937 1.771 1.338 9.017-.825 13.425-5.594 2.852-3.085 1.871-9.918 11.378-32.59 9.507-22.671 17.98-50.905 24.5-48.754 6.52 2.15 1.146 16.641-1.193 22.043-10.976 25.354-29.956 67.241-21.005 64.07 8.951-3.17 13.612-3.356 22.377-13.613 8.765-10.257 8.361-27.152 14.203-26.793 5.844.36 4.863 5.777 3.446 9.902 5.75-6.58 27.256-20.438 32.448-6.713 6.15 16.249-30.769 39.72-21.564 38.523 8.975-1.167 23.515-10.376 29.723-18.749l17.088-153.626s-17.195 14.23-126.589 14.23c-109.395 0-124.811-13.934-124.811-13.934l14.548 140.224c7.722-21.947 26.059-66.339 54.963-64.849 13.148.678 30.7 25.995 15.665 26.853-6.364.362-7.01-12.637-14.546-14.546-5.438-1.378-13.009 3.043-17.902 7.833-9.758 9.55-30.745 47.229-27.972 66.014 3.533 23.949 33.048-8.322 38.042-17.903 3.517-6.749 5.893-26.745 13.585-24.647 7.693 2.098-.671 22.734-6.247 40.979-6.264 20.487-9.557 42.098-17.408 39.612-7.852-2.484 4.938-28.932 4.475-33.566-7.38 6.809-20.976 24.047-38.37 15.515l9.035 87.078s24.013 18.973 96.35 18.973c72.337 0 97.239-18.677 97.239-18.677l11.219-100.857c-9.179 8.938-38.229 24.81-40.089 6.919" fill="#D34A47"/></svg><svg fill="#FFF" height="14" viewBox="0 0 24 24" width="14" id="home" x="120" y="150"><path d="M10 20v-6h4v6h5v-8h3L12 3 2 12h3v8z"/><path d="M0 0h24v24H0z" fill="none"/></svg><svg width="50" height="50" viewBox="0 0 511.997 511.997" id="html5" x="150" y="100"><path d="M38.238 0c-4.706 0-8.212 3.835-7.794 8.521l39.671 444.978c.418 4.687 4.468 9.552 9.004 10.811l168.344 46.742c4.535 1.259 11.954 1.259 16.49.003l168.856-46.819c4.535-1.258 8.59-6.122 9.007-10.808L481.553 8.521C481.974 3.835 478.464 0 473.758 0H38.238zm358.83 102.054c-.375 4.18-1.023 11.437-1.441 16.124l-1.045 11.675c-.421 4.685-1.02 11.386-1.336 14.889-.315 3.504-.614 6.371-.669 6.371H184.39c-4.706 0-8.212 3.835-7.794 8.521l3.667 40.99c.418 4.685 4.612 8.521 9.317 8.521h190.299c4.191 0 7.312 3.421 6.932 7.601-.382 4.18-1.034 11.439-1.451 16.124l-11.791 132.15c-.421 4.687-.953 10.674-1.182 13.306-.234 2.63-4.134 5.811-8.669 7.069l-99.474 27.582a2971.712 2971.712 0 0 1-8.373 2.312c-.07.015-3.836-1.003-8.373-2.26l-99.58-27.632c-4.535-1.258-8.587-6.122-9.004-10.809l-6.41-71.945c-.418-4.687 3.092-8.522 7.798-8.522h39.751c4.706 0 8.896 3.835 9.317 8.522l2.514 28.164c.418 4.687 4.475 9.524 9.019 10.751l46.579 12.579a1851.25 1851.25 0 0 0 8.296 2.231c.021 0 3.753-1.006 8.296-2.233l46.663-12.609c4.541-1.227 8.602-6.066 9.023-10.751l5.06-56.427c.421-4.687-3.085-8.522-7.791-8.522H137.765c-4.706 0-8.896-3.836-9.314-8.521l-12.416-139.126c-.418-4.687-1.066-11.942-1.441-16.124-.371-4.18 3.172-7.601 7.878-7.601H389.191c4.705-.002 8.25 3.418 7.877 7.6z" fill="#dd512a"/></svg><svg width="14" height="14" viewBox="0 0 256 256" preserveAspectRatio="xMidYMid" id="instagram" x="50" y="164"><path d="M128 23.064c34.177 0 38.225.13 51.722.745 12.48.57 19.258 2.655 23.769 4.408 5.974 2.322 10.238 5.096 14.717 9.575 4.48 4.479 7.253 8.743 9.575 14.717 1.753 4.511 3.838 11.289 4.408 23.768.615 13.498.745 17.546.745 51.723 0 34.178-.13 38.226-.745 51.723-.57 12.48-2.655 19.257-4.408 23.768-2.322 5.974-5.096 10.239-9.575 14.718-4.479 4.479-8.743 7.253-14.717 9.574-4.511 1.753-11.289 3.839-23.769 4.408-13.495.616-17.543.746-51.722.746-34.18 0-38.228-.13-51.723-.746-12.48-.57-19.257-2.655-23.768-4.408-5.974-2.321-10.239-5.095-14.718-9.574-4.479-4.48-7.253-8.744-9.574-14.718-1.753-4.51-3.839-11.288-4.408-23.768-.616-13.497-.746-17.545-.746-51.723 0-34.177.13-38.225.746-51.722.57-12.48 2.655-19.258 4.408-23.769 2.321-5.974 5.095-10.238 9.574-14.717 4.48-4.48 8.744-7.253 14.718-9.575 4.51-1.753 11.288-3.838 23.768-4.408 13.497-.615 17.545-.745 51.723-.745M128 0C93.237 0 88.878.147 75.226.77c-13.625.622-22.93 2.786-31.071 5.95-8.418 3.271-15.556 7.648-22.672 14.764C14.367 28.6 9.991 35.738 6.72 44.155 3.555 52.297 1.392 61.602.77 75.226.147 88.878 0 93.237 0 128c0 34.763.147 39.122.77 52.774.622 13.625 2.785 22.93 5.95 31.071 3.27 8.417 7.647 15.556 14.763 22.672 7.116 7.116 14.254 11.492 22.672 14.763 8.142 3.165 17.446 5.328 31.07 5.95 13.653.623 18.012.77 52.775.77s39.122-.147 52.774-.77c13.624-.622 22.929-2.785 31.07-5.95 8.418-3.27 15.556-7.647 22.672-14.763 7.116-7.116 11.493-14.254 14.764-22.672 3.164-8.142 5.328-17.446 5.95-31.07.623-13.653.77-18.012.77-52.775s-.147-39.122-.77-52.774c-.622-13.624-2.786-22.929-5.95-31.07-3.271-8.418-7.648-15.556-14.764-22.672C227.4 14.368 220.262 9.99 211.845 6.72c-8.142-3.164-17.447-5.328-31.071-5.95C167.122.147 162.763 0 128 0zm0 62.27C91.698 62.27 62.27 91.7 62.27 128c0 36.302 29.428 65.73 65.73 65.73 36.301 0 65.73-29.428 65.73-65.73 0-36.301-29.429-65.73-65.73-65.73zm0 108.397c-23.564 0-42.667-19.103-42.667-42.667S104.436 85.333 128 85.333s42.667 19.103 42.667 42.667-19.103 42.667-42.667 42.667zm83.686-110.994c0 8.484-6.876 15.36-15.36 15.36-8.483 0-15.36-6.876-15.36-15.36 0-8.483 6.877-15.36 15.36-15.36 8.484 0 15.36 6.877 15.36 15.36z" fill="#FFF"/></svg><svg width="50" height="50" viewBox="0 0 256 256" preserveAspectRatio="xMidYMid" id="javascript" y="150"><path d="M0 0h256v256H0V0z" fill="#F7DF1E"/><path d="M67.312 213.932l19.59-11.856c3.78 6.701 7.218 12.371 15.465 12.371 7.905 0 12.89-3.092 12.89-15.12v-81.798h24.057v82.138c0 24.917-14.606 36.259-35.916 36.259-19.245 0-30.416-9.967-36.087-21.996M152.381 211.354l19.588-11.341c5.157 8.421 11.859 14.607 23.715 14.607 9.969 0 16.325-4.984 16.325-11.858 0-8.248-6.53-11.17-17.528-15.98l-6.013-2.58c-17.357-7.387-28.87-16.667-28.87-36.257 0-18.044 13.747-31.792 35.228-31.792 15.294 0 26.292 5.328 34.196 19.247L210.29 147.43c-4.125-7.389-8.591-10.31-15.465-10.31-7.046 0-11.514 4.468-11.514 10.31 0 7.217 4.468 10.14 14.778 14.608l6.014 2.577c20.45 8.765 31.963 17.7 31.963 37.804 0 21.654-17.012 33.51-39.867 33.51-22.339 0-36.774-10.654-43.819-24.574"/></svg><svg width="50" height="50" viewBox="0 0 512 116" id="jquery" x="150" y="50"><g fill="none" fill-rule="evenodd"><path d="M489.718 8.646l21.42.118s-39.824 53.964-43.076 58.362c-1.056 1.424-2.66 2.96-3.474 4.864-2.057 4.786-4.169 15.285-4.169 15.285l-19.599.098s3.05-10.944 2.924-16.773c-.11-5.092-2.71-10.178-4.168-15.285-1.474-5.17-3.475-15.286-3.475-15.286h20.15l2.779 11.117 30.688-42.5" fill="#1A1918"/><path d="M449.157 20.027c3.953 2.383 6.379 15.529 6.379 15.529s-20.684.305-31.94.305h-9.727l-11.812 51.414h-18.064s11.242-55.874 13.896-66.004c.86-3.28 5.892-2.717 14.389-2.717h13.569c8.762 0 19.003-1.119 23.31 1.473M365.06 45.067s.563-3.3-1.91-7.122c-2.113-3.258-4.064-4.016-9.623-4.19-15.695-.493-15.39 11.138-15.39 11.138l26.923.174zm17.022-13.32c2.3 8.297-2.084 27.792-2.084 27.792s-22.894-.382-35.434 0c-3.899.119-8.566-.424-9.727 1.39-1.633 2.542.597 6.455 2.487 8.108 2.175 1.903 6.412 2.12 7.935 2.313 10.178 1.293 31.48.334 31.48.334l-3.69 16.34s-30.103 1.51-45.16-2.084c-2.973-.708-5.76-2.139-7.643-4.168-.514-.555-.96-1.312-1.446-1.966-.388-.522-1.52-2.237-2.028-3.593-3.439-9.164.403-26.72 4.169-36.128.437-1.09.986-2.473 1.564-3.648.722-1.465 1.333-3.119 1.91-3.995.388-.604.869-.993 1.272-1.563.465-.674 1.006-1.327 1.507-1.91 1.39-1.612 2.967-2.752 4.864-4.168 6.273-4.698 17.626-8.345 31.265-6.949 5.135.528 12.89 2.362 16.675 7.643 1.014 1.41 1.515 4.21 2.084 6.253zM299.229 18.49l17.516-.103s-9.762 46.307-14.737 68.888h-20.15c-14.082 0-26.623 1.744-31.959-8.338-5.176-9.789-.236-25.887 2.084-36.824 1.64-7.74 5.094-23.56 5.094-23.56l18.148-.166s-5.128 24.63-7.262 36.928c-.764 4.405-2.34 8.553-.694 11.81 1.563 3.1 3.752 3.322 10.421 3.475 2.113.05 9.033 0 9.033 0l12.506-52.11M217.244 51.84c1.834-6.516 4.509-13.582 4.169-19.454-.368-6.28-5.634-11.998-9.032-13.2-10.234-3.613-19.815 1.438-23.623 5.558-4.926 5.336-6.594 11.569-8.338 20.15-1.298 6.37-2.362 13.095 0 18.063 4.182 8.783 17.224 6.865 31.266 6.949 2.084-5.586 3.807-11.86 5.558-18.066zm24.318-25.706c2 14.548-5.676 30.606-10.964 44.57 5.392.487 10.117-.075 10.457.327.354.521-3.614 16.668-4.997 16.71-4.279.111-18.459.229-24.372.229-19.295 0-37.345 1.257-46.55-8.337-3.738-3.898-6.323-10.583-6.949-15.286-1.042-7.851.264-16.495 2.085-23.622 1.647-6.435 3.758-12.507 6.948-18.066C175.328 8.507 189.432-1.998 213.075.427c4.586.472 11.172 2.48 15.286 4.863.284.167 1.279.959 1.507 1.098 5.559 3.537 10.624 11.978 11.694 19.746zM156.193 18.574c-1.167 5.315-2.334 11.34-3.564 16.592h-19.454c1.507-5.822 2.661-11.61 4.169-16.675 6.225 0 12.013.083 18.85.083M132.48 40.03h18.76c-2.453 13.576-7.31 35.475-11.117 50.719-2.383 9.54-3.974 16.501-10.422 21.538-.577.452-.91.237-1.39.695-1.188 1.133-6.684 2.447-9.726 2.779-4.947.536-10.54.07-16.62-.055 1.591-5.815 3.391-12.798 4.809-18.01 14.82 1.794 15.195-12.214 18.064-25.706 1.66-7.796 6.691-28.834 7.642-31.96" fill="#1A1918"/><g transform="translate(0 8.828)" fill="#21609B"><path d="M88.708 66.637l-.402 1.041c-6.85 13.34-18.989 21.525-36.303 21.886-8.094.166-15.806-1.91-20.844-4.169-10.872-4.884-20.017-13.944-25.011-23.622-7.164-13.875-8.456-33.177 6.44-47.593.23 0-1.807 3.126-1.577 3.126l-.41 1.334C-.133 52.247 32.938 81.046 65.086 77.752c7.726-.791 17.578-5.022 23.622-11.115"/><path d="M69.254 52.74c8.088.056 16.536-3.724 21.539-9.032-4.377 11.11-17.05 18.252-34.044 15.98-14.23-1.904-27.785-16.223-29.181-30.57-1.021-10.443 2.618-16.675 8.615-24.234-2.084 3.953-2.863 7.003-3.057 8.948C30.848 36.42 51.17 52.622 69.254 52.74"/><path d="M89.98 24.685c-1.257 2.884-8.496 8.33-11.693 9.01-12.659 2.697-20.766-3.306-25.013-10.136-.631-1.021-1.798-3.807-2.007-4.516-1.647-5.6-.89-14.07 4.023-18.454-1.48 4.17-1.696 9.011-.917 12.159.472 1.904 1.91 5.226 3.349 7.316 2.618 3.808 4.279 4.733 7.642 6.754 1.515.91 3.14 1.64 3.842 1.841 3.189.938 9.922 3.412 20.775-3.974"/></g></g></svg><svg height="14" width="14" id="linkedin" viewBox="0 0 512 512" x="78" y="150"><style>.pst0{fill:#fff}</style><g id="pXMLID_184_"><path class="pst0" d="M130.5 289h53.8v173h-53.8V289zm27-86c17.2 0 31.2 14 31.2 31.2s-14 31.2-31.2 31.2c-17.3 0-31.2-14-31.2-31.2s13.9-31.2 31.2-31.2" id="pXMLID_195_"/><path class="pst0" d="M218.1 289h51.5v23.7h.7c7.2-13.6 24.7-27.9 50.9-27.9 54.4 0 64.5 35.8 64.5 82.4V462H332v-84.1c0-20.1-.3-45.9-27.9-45.9-28 0-32.2 21.9-32.2 44.4V462h-53.7V289z" id="pXMLID_192_"/></g></svg><svg width="50" height="50" viewBox="0 0 512 146" id="mongodb" x="100" y="100"><g fill="none" fill-rule="evenodd"><path d="M476.713 60.463c-.46.092-.922 1.107-.922 1.66-.092 3.692-.184 13.474-.184 20.118 0 .185.276.554.553.554 1.384.092 4.706.184 7.567.184 3.968 0 6.275-.553 7.568-1.106 3.321-1.662 4.89-5.261 4.89-9.23 0-8.95-6.275-12.365-15.596-12.365-.646-.092-2.49-.092-3.876.185zm23.81 41.25c0-9.136-6.737-14.212-18.918-14.212-.554 0-4.43-.092-5.353.092-.277.093-.645.278-.645.555 0 6.551-.093 16.98.184 21.04.184 1.753 1.477 4.245 3.046 4.983 1.66.923 5.444 1.107 8.028 1.107 7.29 0 13.658-4.06 13.658-13.565zm-42.634-46.325c.922 0 3.69.276 10.796.276 6.737 0 12.089-.184 18.641-.184 8.028 0 19.102 2.86 19.102 14.857 0 5.906-4.153 10.613-9.597 12.92-.276.092-.276.276 0 .368 7.751 1.939 14.581 6.737 14.581 15.78 0 8.86-5.537 14.489-13.566 17.996-4.891 2.122-10.981 2.86-17.164 2.86-4.707 0-17.349-.553-24.362-.368-.738-.278.646-3.6 1.291-4.153 1.662-.093 2.953-.185 4.707-.739 2.492-.645 2.768-1.384 3.137-5.167.185-3.23.185-14.674.185-22.794 0-11.166.093-18.733 0-22.424-.092-2.86-1.107-3.784-3.137-4.338-1.57-.276-4.153-.646-6.276-.922-.462-.462 1.107-3.6 1.662-3.968zm-53.248 57.399c2.216 1.752 6.553 2.49 10.429 2.49 4.983 0 9.966-.921 14.765-5.26 4.891-4.428 8.305-11.257 8.305-22.146 0-10.429-3.968-18.919-12.089-23.901-4.614-2.862-10.52-4.06-17.349-4.06-2.03 0-3.968.092-5.167.645-.278.185-.923 1.015-.923 1.476-.185 1.846-.185 16.057-.185 24.363 0 8.582 0 20.579.185 21.963 0 1.385.645 3.507 2.03 4.43zm-20.948-57.4c1.754 0 8.49.277 11.72.277 5.815 0 9.967-.276 20.948-.276 9.228 0 16.98 2.491 22.517 7.197 6.736 5.814 10.244 13.843 10.244 23.624 0 13.935-6.368 21.964-12.736 26.578-6.366 4.706-14.672 7.474-26.484 7.474-6.275 0-17.072-.184-26.024-.277h-.092c-.461-.83.738-4.06 1.476-4.152 2.4-.277 3.046-.37 4.246-.83 1.937-.739 2.307-1.754 2.584-5.168.276-6.368.184-14.027.184-22.702 0-6.182.092-18.272-.093-22.148-.276-3.229-1.66-4.06-4.429-4.614-1.384-.276-3.23-.646-5.813-.922-.37-.647 1.291-3.507 1.752-4.06z" fill="#8E714E"/><path d="M272.033 116.385c-2.307-.277-3.968-.645-5.998-1.568-.277-.185-.739-1.107-.739-1.477-.184-3.23-.184-12.458-.184-18.64 0-4.984-.83-9.321-2.953-12.366-2.492-3.508-6.09-5.537-10.705-5.537-4.06 0-9.505 2.768-14.027 6.644-.092.092-.83.739-.738-.277 0-1.015.185-3.045.277-4.43.093-1.292-.646-1.937-.646-1.937-2.953 1.476-11.258 3.414-14.304 3.69-2.214.463-2.768 2.585-.46 3.323h.092c2.49.738 4.152 1.569 5.443 2.4.923.738.831 1.753.831 2.584.092 6.92.092 17.533-.184 23.347-.092 2.307-.738 3.137-2.4 3.506l.185-.092c-1.292.277-2.307.553-3.876.738-.554.554-.554 3.507 0 4.153 1.015 0 6.367-.277 10.798-.277 6.09 0 9.228.277 10.796.277.646-.738.831-3.507.462-4.153-1.754-.092-3.046-.276-4.245-.646-1.661-.37-2.123-1.199-2.216-3.137-.183-4.892-.183-15.227-.183-22.24 0-1.938.553-2.861 1.106-3.415 2.123-1.845 5.538-3.137 8.583-3.137 2.953 0 4.89.923 6.367 2.123 2.03 1.66 2.676 4.06 2.953 5.813.461 3.968.277 11.812.277 18.641 0 3.691-.277 4.614-1.66 5.075-.647.277-2.308.647-4.246.83-.646.647-.461 3.508 0 4.154 2.676 0 5.814-.277 10.428-.277 5.721 0 9.413.277 10.89.277.46-.554.645-3.23.276-3.969zm25.562-35.25c-4.89 0-7.936 3.783-7.936 9.688 0 5.999 2.676 12.92 10.243 12.92 1.292 0 3.692-.554 4.798-1.846 1.754-1.66 2.954-4.983 2.954-8.49 0-7.659-3.784-12.273-10.059-12.273zm-.646 40.787c-1.845 0-3.138.554-3.968 1.016-3.876 2.49-5.629 4.89-5.629 7.752 0 2.675 1.015 4.797 3.23 6.643 2.676 2.307 6.367 3.415 11.073 3.415 9.413 0 13.566-5.076 13.566-10.058 0-3.508-1.754-5.815-5.352-7.106-2.584-1.108-7.29-1.662-12.92-1.662zm.646 23.994c-5.629 0-9.69-1.2-13.196-3.876-3.415-2.584-4.891-6.46-4.891-9.136 0-.738.185-2.769 1.846-4.614 1.014-1.108 3.23-3.23 8.49-6.829.184-.092.276-.184.276-.37 0-.184-.185-.369-.369-.46-4.337-1.661-5.629-4.338-5.999-5.814v-.185c-.091-.554-.276-1.107.555-1.661.646-.461 1.569-1.015 2.583-1.66 1.569-.924 3.23-1.939 4.245-2.77.185-.184.185-.368.185-.553 0-.185-.185-.37-.37-.461-6.458-2.123-9.688-6.922-9.688-14.12 0-4.706 2.122-8.951 5.905-11.627 2.584-2.03 9.044-4.522 13.289-4.522h.277c4.337.092 6.736 1.015 10.15 2.215 1.846.646 3.6.922 6 .922 3.598 0 5.167-1.107 6.458-2.398.093.184.278.646.37 1.845.092 1.2-.277 2.953-1.2 4.245-.738 1.015-2.399 1.754-4.06 1.754h-.462c-1.661-.185-2.4-.37-2.4-.37l-.368.185c-.092.185 0 .369.092.646l.093.185c.184.83.553 3.321.553 3.968 0 7.567-3.045 10.888-6.275 13.38-3.138 2.307-6.736 3.783-10.797 4.153-.092 0-.46 0-1.292.092-.461 0-1.107.093-1.2.093h-.092c-.738.184-2.583 1.107-2.583 2.675 0 1.384.83 3.046 4.798 3.323.83.092 1.66.092 2.584.185 5.26.368 11.812.83 14.857 1.845 4.245 1.568 6.921 5.352 6.921 9.874 0 6.83-4.89 13.197-13.011 17.164-3.968 1.754-7.937 2.677-12.274 2.677zm52.6-64.32c-1.937 0-3.691.46-4.983 1.383-3.598 2.215-5.444 6.645-5.444 13.104 0 12.09 6.09 20.58 14.765 20.58 2.584 0 4.614-.739 6.367-2.215 2.676-2.216 4.061-6.645 4.061-12.828 0-11.996-5.999-20.025-14.765-20.025zm1.662 39.496c-15.688 0-21.317-11.535-21.317-22.332 0-7.567 3.045-13.381 9.135-17.534 4.338-2.676 9.506-4.152 14.12-4.152 11.996 0 20.394 8.582 20.394 20.948 0 8.397-3.322 15.041-9.69 19.102-3.045 2.03-8.305 3.968-12.643 3.968h.001zM187.411 81.595c-1.938 0-3.691.461-4.984 1.384-3.598 2.215-5.444 6.645-5.444 13.104 0 12.09 6.09 20.58 14.765 20.58 2.584 0 4.614-.739 6.368-2.215 2.675-2.216 4.06-6.645 4.06-12.828 0-11.996-5.906-20.025-14.765-20.025zm1.661 39.497c-15.688 0-21.317-11.535-21.317-22.332 0-7.567 3.045-13.381 9.135-17.534 4.338-2.676 9.506-4.152 14.12-4.152 11.997 0 20.394 8.582 20.394 20.948 0 8.397-3.322 15.041-9.69 19.102-2.953 2.03-8.213 3.968-12.642 3.968zm-105.478-.923c-.185-.276-.37-1.107-.277-2.122 0-.739.185-1.2.277-1.384 1.938-.278 2.953-.555 4.06-.831 1.846-.462 2.584-1.476 2.676-3.783.278-5.537.278-16.058.185-23.348v-.185c0-.83 0-1.846-1.015-2.584-1.477-.922-3.23-1.752-5.537-2.4-.83-.275-1.384-.737-1.292-1.29 0-.554.554-1.2 1.754-1.385 3.045-.277 10.98-2.214 14.118-3.599.185.184.462.739.462 1.477l-.092 1.014c-.093 1.016-.185 2.216-.185 3.415 0 .369.37.646.738.646.185 0 .37-.092.554-.185 5.906-4.614 11.258-6.275 14.026-6.275 4.523 0 8.03 2.123 10.706 6.552.184.278.369.37.646.37.184 0 .46-.092.553-.277 5.445-4.153 10.89-6.645 14.488-6.645 8.582 0 13.658 6.368 13.658 17.165 0 3.045 0 7.013-.092 10.613 0 3.229-.092 6.182-.092 8.305 0 .46.645 1.937 1.66 2.214 1.292.646 3.046.923 5.353 1.292h.092c.185.646-.184 3.045-.553 3.507-.554 0-1.385 0-2.307-.092a136.208 136.208 0 0 0-7.014-.185c-5.721 0-8.674.092-11.536.277-.183-.738-.276-2.953 0-3.507 1.662-.276 2.492-.554 3.508-.83 1.846-.554 2.307-1.385 2.4-3.784 0-1.753.368-16.703-.186-20.302-.553-3.691-3.322-8.028-9.413-8.028-2.307 0-5.905.923-9.412 3.598-.184.185-.37.646-.37.923v.093c.37 1.937.37 4.153.37 7.567v5.998c0 4.153-.093 8.029 0 10.981 0 2.031 1.2 2.492 2.215 2.862.554.091.922.184 1.384.276.83.185 1.661.37 2.953.646.185.37.185 1.569-.092 2.584-.093.554-.278.83-.37.923-3.137-.092-6.367-.185-11.073-.185-1.384 0-3.784.093-5.814.093-1.662 0-3.23.092-4.152.092-.093-.185-.278-.83-.278-1.846 0-.83.185-1.476.37-1.661.461-.092.83-.184 1.292-.184 1.106-.185 2.03-.37 2.952-.554 1.57-.461 2.123-1.292 2.215-3.322.277-4.614.554-17.81-.092-21.133-1.107-5.352-4.152-8.028-9.044-8.028-2.86 0-6.46 1.384-9.412 3.6-.462.368-.831 1.29-.831 2.121v5.445c0 6.644 0 14.95.092 18.549.093 1.106.461 2.399 2.584 2.86.462.092 1.2.277 2.123.37l1.66.276c.186.554.093 2.769-.276 3.507-.923 0-2.03-.092-3.323-.092-1.937-.093-4.429-.185-7.197-.185-3.23 0-5.537.092-7.383.185-1.292-.185-2.307-.185-3.414-.185z" fill="#442D22"/><path d="M35.053 142.317l-3.783-1.293s.462-19.286-6.46-20.67c-4.613-5.353.74-227.013 17.35-.739 0 0-5.722 2.86-6.737 7.752-1.108 4.799-.37 14.95-.37 14.95z" fill="#FFF"/><path d="M35.053 142.317l-3.783-1.293s.462-19.286-6.46-20.67c-4.613-5.353.74-227.013 17.35-.739 0 0-5.722 2.86-6.737 7.752-1.108 4.799-.37 14.95-.37 14.95z" fill="#A6A385"/><path d="M37.084 123.676s33.13-21.779 25.377-67.09c-7.474-32.943-25.1-43.74-27.038-47.893C33.301 5.74 31.27.573 31.27.573l1.385 91.634c0 .093-2.861 28.054 4.43 31.47" fill="#FFF"/><path d="M37.084 123.676s33.13-21.779 25.377-67.09c-7.474-32.943-25.1-43.74-27.038-47.893C33.301 5.74 31.27.573 31.27.573l1.385 91.634c0 .093-2.861 28.054 4.43 31.47" fill="#499D4A"/><path d="M29.333 124.875S-1.767 103.65.079 66.277C1.832 28.903 23.795 10.539 28.04 7.217c2.769-2.953 2.861-4.061 3.046-7.014 1.938 4.153 1.569 62.106 1.845 68.934.83 26.3-1.476 50.756-3.598 55.738z" fill="#FFF"/><path d="M29.333 124.875S-1.767 103.65.079 66.277C1.832 28.903 23.795 10.539 28.04 7.217c2.769-2.953 2.861-4.061 3.046-7.014 1.938 4.153 1.569 62.106 1.845 68.934.83 26.3-1.476 50.756-3.598 55.738z" fill="#58AA50"/></g></svg><svg width="50" height="50" viewBox="0 0 512 314" preserveAspectRatio="xMidYMid" id="nodejs" x="100" y="50"><defs><linearGradient x1="68.188%" y1="17.487%" x2="27.823%" y2="89.755%" id="rb"><stop stop-color="#41873F" offset="0%"/><stop stop-color="#418B3D" offset="32.88%"/><stop stop-color="#419637" offset="63.52%"/><stop stop-color="#3FA92D" offset="93.19%"/><stop stop-color="#3FAE2A" offset="100%"/></linearGradient><path id="ra" d="M57.903 1.85a5.957 5.957 0 0 0-5.894 0L3.352 29.933c-1.85 1.04-2.89 3.005-2.89 5.085v56.286c0 2.08 1.156 4.045 2.89 5.085l48.657 28.085a5.957 5.957 0 0 0 5.894 0l48.658-28.085c1.849-1.04 2.89-3.005 2.89-5.085V35.019c0-2.08-1.157-4.045-2.89-5.085L57.903 1.85z"/><linearGradient x1="43.277%" y1="55.169%" x2="159.245%" y2="-18.306%" id="rd"><stop stop-color="#41873F" offset="13.76%"/><stop stop-color="#54A044" offset="40.32%"/><stop stop-color="#66B848" offset="71.36%"/><stop stop-color="#6CC04A" offset="90.81%"/></linearGradient><linearGradient x1="-4413.77%" y1="13.43%" x2="5327.93%" y2="13.43%" id="re"><stop stop-color="#6CC04A" offset="9.192%"/><stop stop-color="#66B848" offset="28.64%"/><stop stop-color="#54A044" offset="59.68%"/><stop stop-color="#41873F" offset="86.24%"/></linearGradient><linearGradient x1="-4.389%" y1="49.997%" x2="101.499%" y2="49.997%" id="rf"><stop stop-color="#6CC04A" offset="9.192%"/><stop stop-color="#66B848" offset="28.64%"/><stop stop-color="#54A044" offset="59.68%"/><stop stop-color="#41873F" offset="86.24%"/></linearGradient><linearGradient x1="-9713.77%" y1="36.21%" x2="27.93%" y2="36.21%" id="rg"><stop stop-color="#6CC04A" offset="9.192%"/><stop stop-color="#66B848" offset="28.64%"/><stop stop-color="#54A044" offset="59.68%"/><stop stop-color="#41873F" offset="86.24%"/></linearGradient><linearGradient x1="-103.861%" y1="50.275%" x2="100.797%" y2="50.275%" id="rh"><stop stop-color="#6CC04A" offset="9.192%"/><stop stop-color="#66B848" offset="28.64%"/><stop stop-color="#54A044" offset="59.68%"/><stop stop-color="#41873F" offset="86.24%"/></linearGradient><linearGradient x1="130.613%" y1="-211.069%" x2="4.393%" y2="201.605%" id="ri"><stop stop-color="#41873F" offset="0%"/><stop stop-color="#418B3D" offset="32.88%"/><stop stop-color="#419637" offset="63.52%"/><stop stop-color="#3FA92D" offset="93.19%"/><stop stop-color="#3FAE2A" offset="100%"/></linearGradient></defs><g fill="none"><path d="M253.11 313.094c-1.733 0-3.351-.462-4.854-1.271l-15.371-9.13c-2.312-1.272-1.156-1.734-.462-1.965 3.12-1.04 3.698-1.272 6.934-3.12.347-.232.81-.116 1.156.115l11.789 7.05c.462.231 1.04.231 1.386 0l46.115-26.698c.462-.231.694-.694.694-1.271v-53.28c0-.579-.232-1.04-.694-1.272l-46.115-26.582c-.462-.232-1.04-.232-1.386 0l-46.115 26.582c-.462.231-.694.809-.694 1.271v53.28c0 .463.232 1.04.694 1.272l12.598 7.281c6.819 3.467 11.095-.578 11.095-4.623v-52.587c0-.693.578-1.387 1.387-1.387h5.894c.694 0 1.387.578 1.387 1.387v52.587c0 9.13-4.97 14.447-13.638 14.447-2.658 0-4.738 0-10.633-2.89l-12.135-6.934c-3.005-1.733-4.854-4.97-4.854-8.437v-53.28c0-3.467 1.849-6.704 4.854-8.437l46.114-26.698c2.89-1.618 6.82-1.618 9.709 0l46.114 26.698c3.005 1.733 4.855 4.97 4.855 8.437v53.28c0 3.467-1.85 6.704-4.855 8.437l-46.114 26.698c-1.503.694-3.236 1.04-4.854 1.04zm14.216-36.637c-20.225 0-24.386-9.246-24.386-17.105 0-.694.578-1.387 1.387-1.387h6.01c.693 0 1.271.462 1.271 1.156.925 6.125 3.583 9.13 15.834 9.13 9.708 0 13.87-2.196 13.87-7.397 0-3.005-1.157-5.2-16.297-6.703-12.598-1.272-20.457-4.045-20.457-14.1 0-9.362 7.86-14.91 21.035-14.91 14.793 0 22.075 5.086 23 16.18 0 .348-.116.694-.347 1.041-.232.231-.578.462-.925.462h-6.01c-.578 0-1.156-.462-1.271-1.04-1.387-6.356-4.97-8.437-14.447-8.437-10.633 0-11.905 3.699-11.905 6.472 0 3.352 1.503 4.392 15.834 6.241 14.216 1.85 20.92 4.508 20.92 14.447-.116 10.171-8.437 15.95-23.116 15.95z" fill="#539E43"/><path d="M110.028 104.712c0-2.08-1.156-4.046-3.005-5.086l-49.004-28.2c-.81-.463-1.734-.694-2.658-.81h-.463c-.924 0-1.849.347-2.658.81l-49.004 28.2c-1.85 1.04-3.005 3.005-3.005 5.086l.116 75.817c0 1.04.578 2.08 1.502 2.543.925.578 2.08.578 2.89 0l29.125-16.643c1.849-1.04 3.005-3.005 3.005-5.085v-35.482c0-2.08 1.155-4.045 3.005-5.085l12.366-7.166c.925-.578 1.965-.81 3.005-.81 1.04 0 2.08.232 2.89.81l12.366 7.166c1.85 1.04 3.005 3.004 3.005 5.085v35.482c0 2.08 1.156 4.045 3.005 5.085l29.125 16.643c.925.578 2.08.578 3.005 0 .925-.463 1.503-1.503 1.503-2.543l-.116-75.817zM345.571.347c-.924-.463-2.08-.463-2.89 0-.924.578-1.502 1.502-1.502 2.542v75.125c0 .693-.346 1.386-1.04 1.849-.693.346-1.387.346-2.08 0l-12.251-7.05a5.957 5.957 0 0 0-5.895 0l-49.004 28.316c-1.849 1.04-3.005 3.005-3.005 5.085v56.516c0 2.08 1.156 4.046 3.005 5.086l49.004 28.316a5.957 5.957 0 0 0 5.895 0l49.004-28.316c1.849-1.04 3.005-3.005 3.005-5.086V21.844c0-2.196-1.156-4.16-3.005-5.201L345.572.347zm-4.507 143.776c0 .578-.231 1.04-.694 1.271l-16.758 9.708a1.714 1.714 0 0 1-1.503 0l-16.758-9.708c-.463-.231-.694-.809-.694-1.271v-19.417c0-.578.231-1.04.694-1.271l16.758-9.709a1.714 1.714 0 0 1 1.503 0l16.758 9.709c.463.23.694.809.694 1.271v19.417z" fill="#333"/><g transform="translate(401.047 70.501)"><path d="M107.6 53.743c1.85-1.04 2.89-3.005 2.89-5.086V34.904c0-2.08-1.155-4.045-2.89-5.085l-48.656-28.2a5.957 5.957 0 0 0-5.895 0L4.045 29.933c-1.85 1.04-3.005 3.005-3.005 5.085v56.517c0 2.08 1.156 4.045 3.005 5.085l48.657 27.738c1.85 1.04 4.046 1.04 5.78 0l29.471-16.411c.925-.463 1.503-1.503 1.503-2.543 0-1.04-.578-2.08-1.503-2.543L38.718 74.546c-.925-.578-1.503-1.502-1.503-2.542V54.32c0-1.04.578-2.08 1.503-2.543l15.371-8.784a2.821 2.821 0 0 1 3.005 0l15.372 8.784c.925.578 1.502 1.502 1.502 2.543V68.19c0 1.04.578 2.08 1.503 2.542.924.578 2.08.578 3.005 0l29.125-16.99z" fill="#333"/><path d="M55.245 51.084a1.05 1.05 0 0 1 1.156 0l9.362 5.432c.346.232.577.578.577 1.04v10.865c0 .462-.23.809-.577 1.04L56.4 74.893a1.05 1.05 0 0 1-1.156 0l-9.361-5.432c-.347-.231-.578-.578-.578-1.04V57.557c0-.463.23-.81.578-1.04l9.361-5.433z" fill="#539E43"/></g><g transform="translate(134.068 70.501)"><mask id="rc" fill="#fff"><use xlink:href="#ra"/></mask><use fill="url(#rb)" xlink:href="#ra"/><g mask="url(#rc)"><path d="M51.893 1.85L3.121 29.933C1.27 30.974 0 32.94 0 35.02v56.286c0 1.387.578 2.658 1.502 3.698L56.285 1.156c-1.387-.231-3.005-.116-4.392.693zM56.632 125.053c.462-.116.925-.347 1.387-.578l48.773-28.085c1.85-1.04 3.005-3.005 3.005-5.085V35.019c0-1.502-.694-3.005-1.734-4.045l-51.43 94.079z"/><path d="M106.676 29.934L57.788 1.85a8.025 8.025 0 0 0-1.503-.578L1.502 95.12a6.082 6.082 0 0 0 1.619 1.387l48.888 28.085c1.387.809 3.005 1.04 4.507.577l51.432-94.078c-.347-.462-.81-.81-1.272-1.156z" fill="url(#rd)"/></g><g mask="url(#rc)"><g transform="translate(0 -9.246)"><path d="M109.797 100.55V44.266c0-2.08-1.271-4.045-3.12-5.085l-48.89-28.085a5.106 5.106 0 0 0-1.848-.693l53.511 91.42c.231-.347.347-.809.347-1.271zM3.12 39.18C1.272 40.22 0 42.185 0 44.265v56.286c0 2.08 1.387 4.045 3.12 5.085l48.889 28.085c1.156.693 2.427.925 3.814.693L3.467 39.064l-.346.116z"/><path fill="url(#re)" fill-rule="evenodd" d="M50.391.809l-.693.347h.924l-.231-.347z"/><path d="M106.792 105.636c1.387-.809 2.427-2.196 2.89-3.698L56.053 10.402c-1.387-.231-2.89-.116-4.16.693L3.351 39.065l52.355 95.465a8.057 8.057 0 0 0 2.196-.693l48.889-28.2z" fill="url(#rf)" fill-rule="evenodd"/><path fill="url(#rg)" fill-rule="evenodd" d="M111.3 104.712l-.347-.578v.809l.346-.231z"/><path d="M106.792 105.636l-48.773 28.085a6.973 6.973 0 0 1-2.196.693l.925 1.734 54.089-31.32v-.694l-1.387-2.312c-.231 1.618-1.271 3.005-2.658 3.814z" fill="url(#rh)" fill-rule="evenodd"/><path d="M106.792 105.636l-48.773 28.085a6.973 6.973 0 0 1-2.196.693l.925 1.734 54.089-31.32v-.694l-1.387-2.312c-.231 1.618-1.271 3.005-2.658 3.814z" fill="url(#ri)" fill-rule="evenodd"/></g></g></g></g></svg><svg width="50" height="50" viewBox="0 0 256 292" preserveAspectRatio="xMidYMid" id="nodemon" x="50" y="50"><path d="M120.947 289.19a13.76 13.76 0 0 0 13.77 0l114.08-65.83a13.77 13.77 0 0 0 6.893-11.935V79.664a13.79 13.79 0 0 0-6.886-11.934L134.724 1.846a13.79 13.79 0 0 0-13.785 0L6.889 67.73A13.786 13.786 0 0 0 0 79.664v131.77c0 4.918 2.627 9.465 6.892 11.925l114.054 65.83" fill="#76D04B"/><path d="M201.701 114.111l-5.087-2.928c7.823-11.539 12.498-28.888 6.636-54.825 0 0-13.202 36.999-39.74 35.773L132.437 74.25a8.1 8.1 0 0 0-3.813-1.109h-.717a8.23 8.23 0 0 0-3.824 1.109L93.006 92.13c-26.535 1.23-39.74-35.773-39.74-35.773-5.866 25.936-1.183 43.285 6.638 54.825l-5.087 2.929a8.385 8.385 0 0 0-4.19 7.271l.153 107.332c0 1.498.775 2.885 2.09 3.614a4 4 0 0 0 4.155 0l41.164-23.572c2.605-1.547 4.189-4.276 4.189-7.26v-50.142c0-2.99 1.584-5.762 4.177-7.243l17.529-10.094a8.268 8.268 0 0 1 4.193-1.13c1.426 0 2.892.37 4.162 1.129l17.523 10.094a8.333 8.333 0 0 1 4.183 7.242v50.143c0 2.983 1.605 5.733 4.194 7.26l41.154 23.57a4.06 4.06 0 0 0 4.184 0 4.17 4.17 0 0 0 2.077-3.614l.134-107.332c-.003-3.018-1.586-5.784-4.186-7.27v.001z" fill="#4F4D3F"/></svg><svg width="50" height="50" viewBox="0 0 256 192" preserveAspectRatio="xMidYMid" id="sass" y="50"><path d="M220.281 110.514c-8.906.046-16.647 2.191-23.128 5.362-2.379-4.71-4.757-8.906-5.176-11.984-.467-3.59-1.026-5.782-.467-10.072.56-4.29 3.078-10.399 3.031-10.865-.046-.466-.56-2.658-5.689-2.704-5.129-.047-9.559.979-10.072 2.331-.513 1.352-1.492 4.43-2.145 7.6-.886 4.664-10.258 21.31-15.62 30.03-1.726-3.403-3.218-6.388-3.545-8.766-.466-3.59-1.026-5.782-.466-10.072.56-4.29 3.078-10.398 3.031-10.865-.047-.466-.56-2.658-5.689-2.704-5.13-.047-9.56.979-10.072 2.331-.513 1.353-1.073 4.523-2.145 7.601-1.073 3.078-13.523 30.87-16.787 38.05a214.726 214.726 0 0 1-4.15 8.627s-.047.14-.187.373a117.773 117.773 0 0 1-1.398 2.658v.046c-.7 1.26-1.446 2.425-1.819 2.425-.28 0-.793-3.357.093-7.927 1.865-9.652 6.295-24.667 6.249-25.18 0-.28.839-2.891-2.891-4.244-3.638-1.352-4.943.886-5.27.886-.326 0-.56.793-.56.793s4.058-16.88-7.74-16.88c-7.367 0-17.533 8.067-22.569 15.341a6269.96 6269.96 0 0 0-17.16 9.373c-2.75 1.539-5.595 3.078-8.253 4.523-.187-.186-.373-.42-.56-.606-14.269-15.248-40.661-26.02-39.542-46.49.42-7.461 2.984-27.046 50.687-50.827 39.262-19.352 70.505-13.99 75.914-2.099 7.74 16.974-16.74 48.496-57.309 53.065-15.481 1.726-23.595-4.243-25.646-6.481-2.145-2.332-2.472-2.472-3.265-2.005-1.305.7-.466 2.798 0 4.01 1.213 3.17 6.202 8.766 14.642 11.518 7.461 2.424 25.6 3.777 47.563-4.71 24.574-9.513 43.786-35.952 38.144-58.101-5.643-22.476-42.947-29.89-78.246-17.347C61.086 13.99 38.33 25.74 21.963 41.035 2.518 59.22-.56 75.028.699 81.65c4.524 23.501 36.932 38.796 49.895 50.127-.653.373-1.26.7-1.772.98-6.482 3.217-31.196 16.133-37.351 29.796-6.994 15.481 1.12 26.58 6.482 28.071 16.647 4.617 33.76-3.683 42.946-17.393 9.186-13.709 8.067-31.522 3.824-39.682-.047-.093-.093-.187-.187-.28 1.679-.979 3.404-2.005 5.083-2.984a247.933 247.933 0 0 1 9.373-5.27c-1.586 4.337-2.752 9.513-3.311 16.974-.7 8.767 2.89 20.144 7.6 24.62 2.099 1.96 4.57 2.006 6.156 2.006 5.502 0 7.974-4.57 10.725-9.979 3.357-6.621 6.388-14.315 6.388-14.315s-3.777 20.797 6.482 20.797c3.73 0 7.507-4.85 9.186-7.321v.046s.093-.14.28-.466c.373-.606.606-.98.606-.98v-.092c1.492-2.612 4.85-8.534 9.839-18.373 6.435-12.683 12.637-28.537 12.637-28.537s.56 3.87 2.471 10.305c1.12 3.777 3.45 7.927 5.316 11.937-1.492 2.099-2.425 3.264-2.425 3.264l.047.047c-1.213 1.585-2.518 3.31-3.964 4.99-5.083 6.061-11.144 13.01-11.984 15.014-.98 2.378-.746 4.104 1.12 5.503 1.352 1.026 3.776 1.165 6.248 1.026 4.57-.327 7.787-1.446 9.372-2.145 2.472-.886 5.363-2.239 8.067-4.244 4.99-3.684 8.02-8.953 7.741-15.9-.14-3.824-1.399-7.648-2.938-11.239.467-.652.886-1.305 1.353-1.958 7.88-11.518 13.989-24.155 13.989-24.155s.56 3.87 2.471 10.306c.933 3.264 2.845 6.808 4.523 10.258-7.414 6.016-11.984 13.01-13.616 17.58-2.937 8.487-.653 12.31 3.684 13.196 1.958.42 4.756-.513 6.808-1.399 2.611-.839 5.689-2.284 8.627-4.43 4.99-3.683 9.792-8.813 9.512-15.76-.14-3.171-.979-6.296-2.145-9.327 6.295-2.61 14.409-4.056 24.76-2.844 22.197 2.611 26.58 16.46 25.74 22.29-.839 5.828-5.502 8.999-7.04 9.978-1.54.98-2.052 1.306-1.912 2.005.186 1.026.932.98 2.238.793 1.819-.326 11.658-4.71 12.077-15.435.7-13.709-12.357-28.677-35.439-28.537zM49.055 168.242c-7.368 8.02-17.626 11.051-22.056 8.487-4.756-2.752-2.891-14.596 6.155-23.082 5.502-5.176 12.59-9.98 17.3-12.917 1.072-.653 2.658-1.585 4.57-2.751.326-.187.513-.28.513-.28l1.119-.7c3.31 12.124.14 22.803-7.601 31.243zm53.625-36.465c-2.565 6.249-7.927 22.243-11.191 21.357-2.798-.746-4.524-12.87-.56-24.854 2.005-6.016 6.248-13.197 8.72-15.994 4.01-4.477 8.44-5.97 9.512-4.15 1.353 2.378-4.896 19.724-6.481 23.641zm44.252 21.17c-1.073.56-2.098.933-2.565.653-.326-.187.467-.933.467-.933s5.549-5.968 7.74-8.673c1.26-1.585 2.751-3.45 4.337-5.549v.606c0 7.135-6.902 11.938-9.98 13.896zm34.133-7.787c-.793-.56-.653-2.425 2.005-8.254 1.026-2.285 3.45-6.108 7.601-9.792.466 1.492.793 2.938.746 4.29-.047 9-6.481 12.357-10.352 13.756z" fill="#CD6799"/></svg><svg fill="#FFF" height="14" viewBox="0 0 24 24" width="14" id="square" x="148" y="150"><path d="M0 0h24v24H0z" fill="none"/><path d="M18 4H6c-1.1 0-2 .9-2 2v12c0 1.1.9 2 2 2h12c1.1 0 2-.9 2-2V6c0-1.1-.9-2-2-2zm0 14H6V6h12v12z"/></svg><svg width="14" height="14" viewBox="0 0 256 209" preserveAspectRatio="xMidYMid" id="twitter" x="162" y="150"><path d="M256 25.45c-9.42 4.177-19.542 7-30.166 8.27 10.845-6.5 19.172-16.793 23.093-29.057a105.183 105.183 0 0 1-33.351 12.745C205.995 7.201 192.346.822 177.239.822c-29.006 0-52.523 23.516-52.523 52.52 0 4.117.465 8.125 1.36 11.97-43.65-2.191-82.35-23.1-108.255-54.876-4.52 7.757-7.11 16.78-7.11 26.404 0 18.222 9.273 34.297 23.365 43.716a52.312 52.312 0 0 1-23.79-6.57c-.003.22-.003.44-.003.661 0 25.447 18.104 46.675 42.13 51.5a52.592 52.592 0 0 1-23.718.9c6.683 20.866 26.08 36.05 49.062 36.475-17.975 14.086-40.622 22.483-65.228 22.483-4.24 0-8.42-.249-12.529-.734 23.243 14.902 50.85 23.597 80.51 23.597 96.607 0 149.434-80.031 149.434-149.435 0-2.278-.05-4.543-.152-6.795A106.748 106.748 0 0 0 256 25.45" fill="#FFF"/></svg><svg height="14" viewBox="0 0 512 512" width="14" id="web" x="176" y="150"><path d="M256.002 7h-.311c-.098 0-.195.02-.293.02C118.146 7.331 7 118.68 7 256c0 137.281 111.146 248.65 248.398 248.98.098 0 .195.02.293.02h.311C393.494 505 505 393.494 505 256 505 118.486 393.494 7 256.002 7zm9.955 149.011c26.398-.72 52.096-4.202 76.82-10.232 7.471 29.355 12.082 63.184 12.82 100.261h-89.641v-90.029zm0-19.92V28.496c26.865 7.431 54.061 43.225 71.395 98.122-22.995 5.543-46.864 8.773-71.395 9.473zM246.042 28.262v107.829c-24.724-.7-48.789-3.988-71.967-9.629 17.478-55.228 44.937-91.158 71.967-98.2zm0 127.729v90.048h-90.253c.729-37.136 5.369-71.004 12.829-100.378 24.929 6.089 50.812 9.63 77.424 10.33zm-110.3 90.049H27.173c2.198-51.2 21.272-98.121 51.813-135.277 22.177 12.217 45.706 22.216 70.354 29.686-8.044 31.766-12.869 67.579-13.598 105.591zm0 19.92c.729 37.992 5.554 73.805 13.599 105.572a366.927 366.927 0 0 0-70.354 29.704c-30.541-37.155-49.615-84.075-51.813-135.276h108.568zm20.047 0h90.253v89.932a365.458 365.458 0 0 0-77.433 10.368c-7.461-29.354-12.091-63.202-12.82-100.3zm90.253 109.832v107.946c-27.049-7.062-54.527-43.031-71.996-98.317 23.187-5.641 47.261-8.928 71.996-9.629zm19.915 107.712V375.792c24.531.701 48.4 3.949 71.414 9.493-17.334 54.936-44.549 90.788-71.414 98.219zm0-127.612V265.96h89.641c-.738 37.038-5.35 70.828-12.781 100.164-24.764-6.031-50.442-9.532-76.86-10.232zm109.678-89.932h109.191c-2.197 51.201-21.262 98.103-51.803 135.258-22.354-12.295-46.086-22.371-70.947-29.88 8.033-31.729 12.838-67.464 13.559-105.378zm0-19.92c-.721-37.972-5.545-73.727-13.578-105.475a367.489 367.489 0 0 0 70.908-29.86c30.58 37.155 49.664 84.096 51.861 135.335H375.635zM419.25 95.492c-19.822 10.543-40.736 19.258-62.582 25.873-11.652-37.467-27.994-68.047-47.33-88.123 42.408 10.175 80.283 32.117 109.912 62.25zM201.874 33.437c-19.23 20.037-35.502 50.481-47.106 87.753a346.815 346.815 0 0 1-62.007-25.698c29.431-29.938 67.016-51.823 109.113-62.055zM92.692 416.43a345.995 345.995 0 0 1 62.056-25.717c11.604 37.311 27.876 67.794 47.125 87.85-42.125-10.251-79.729-32.156-109.181-62.133zm216.646 62.308c19.357-20.076 35.697-50.676 47.35-88.201a346.606 346.606 0 0 1 62.621 25.912c-29.629 30.153-67.524 52.134-109.971 62.289z" fill="#FFF"/></svg><svg width="50" height="50" viewBox="0 0 256 290" preserveAspectRatio="xMidYMid" id="webpack" x="50"><path fill="#FFF" d="M128 .048l128 72.405V217.31l-128 72.405L0 217.31V72.453z"/><path d="M233.153 212.287l-100.902 57.14V224.99l62.889-34.632 38.013 21.929zm6.907-6.231V86.654l-36.902 21.3v76.8l36.902 21.302zm-217.6 6.23l100.903 57.094v-44.438l-62.889-34.584-38.014 21.929zm-6.907-6.23V86.654l36.903 21.3v76.8l-36.903 21.302zm4.3-127.13l103.51-58.543v42.99L57.045 99.84l-.532.29-36.66-21.205zm215.86 0L132.251 20.382v42.99l66.27 36.515.531.29 36.661-21.253z" fill="#8ED6FB"/><path d="M123.363 214.847l-62.02-34.15v-67.574l62.02 35.792v65.932zm8.888 0l62.02-34.101v-67.623l-62.02 35.792v65.932zM65.497 105.298l62.31-34.246 62.26 34.246-62.26 35.937-62.31-35.937z" fill="#1C78C0"/></svg></svg>